<?xml version="1.0" encoding="utf-8"?>
<!-- Generator: Adobe Illustrator 23.0.3, SVG Export Plug-In . SVG Version: 6.00 Build 0)  -->
<svg version="1.1" id="레이어_1" xmlns="http://www.w3.org/2000/svg" xmlns:xlink="http://www.w3.org/1999/xlink" x="0px" fill="#48FF00"
	 y="0px" viewBox="0 0 606 363" style="enable-background:new 0 0 606 363;" xml:space="preserve">
<g>
	<rect x="390.87" y="63.75" width="18.92" height="29.97"/>
	<rect x="421.05" y="63.75" width="18.92" height="29.97"/>
	<rect x="451.23" y="63.75" width="18.92" height="29.97"/>
	<rect x="481.41" y="63.75" width="18.92" height="29.97"/>
	<rect x="511.63" y="63.75" width="18.92" height="29.97"/>
	<rect x="541.81" y="63.75" width="18.92" height="29.97"/>
	<path d="M553.42,0.28H398.14c-29,0-52.58,23.58-52.58,52.58v22.11h-36.61V32.06c0-17.53-14.25-31.78-31.78-31.78H72.38
		c-16.48,0-27.57,12.78-27.57,31.78v42.92H0v287.89h606V230.29v-69.27V52.9C606,23.86,582.42,0.28,553.42,0.28z M587.08,52.86V343.9
		H364.47V52.86c0-18.58,15.09-33.67,33.67-33.67h155.27C571.99,19.19,587.08,34.32,587.08,52.86z M18.92,297.46v-52.5h23.88v52.5
		H18.92z M72.38,187.66h204.79c17.53,0,31.78-14.25,31.78-31.78v-62h36.36h0.21v132.15H18.87V93.89h25.89v62
		C44.81,174.89,55.91,187.66,72.38,187.66z M290.07,155.89c0,7.1-5.76,12.86-12.86,12.86H72.42c-2.14,0-8.66,0-8.66-12.86V32.06
		c0-12.86,6.52-12.86,8.66-12.86h204.79c7.1,0,12.86,5.76,12.86,12.86V155.89z M61.71,297.46v-52.5h38.55v52.5H61.71z
		 M119.17,297.46v-52.5h23.88v52.5H119.17z M345.56,316.37v27.57H18.92v-27.57H345.56z M345.56,244.96v52.5h-183.6v-52.5H345.56z"/>
	<path d="M384.4,221.92h182.8V111.75H384.4V221.92z M548.29,160.47h-70.66l-40.73-13.45l-33.58,11.1v-27.45h144.97V160.47z
		 M403.31,178.04l33.58-11.1l37.66,12.44l0,0l0.21,0.08l0.67-0.08h72.8v23.62H403.27v-24.97H403.31z"/>
	<path d="M82.76,139.91h87.22V48.83H82.76V139.91z M99.58,65.68h53.59v57.46H99.58V65.68z"/>
	<path d="M184.32,139.91h87.22V48.83h-87.22V139.91z M201.13,65.68h53.59v57.46h-53.59V65.68z"/>
</g>
</svg>
