<?xml version="1.0" encoding="utf-8"?>
<!-- Generator: Adobe Illustrator 23.0.3, SVG Export Plug-In . SVG Version: 6.00 Build 0)  -->
<svg version="1.1" id="레이어_1" xmlns="http://www.w3.org/2000/svg" xmlns:xlink="http://www.w3.org/1999/xlink" x="0px"
	 y="0px" viewBox="0 0 606 363" style="enable-background:new 0 0 606 363;" xml:space="preserve">
<style type="text/css">
	.st0{fill:#23B5B1;}
</style>
<g>
	<rect x="390.9" y="63.8" class="st0" width="18.9" height="30"/>
	<rect x="421" y="63.8" class="st0" width="18.9" height="30"/>
	<rect x="451.2" y="63.8" class="st0" width="18.9" height="30"/>
	<rect x="481.4" y="63.8" class="st0" width="18.9" height="30"/>
	<rect x="511.6" y="63.8" class="st0" width="18.9" height="30"/>
	<rect x="541.8" y="63.8" class="st0" width="18.9" height="30"/>
	<path class="st0" d="M553.4,0.3H398.1c-29,0-52.6,23.6-52.6,52.6V75H309V32.1c0-17.5-14.3-31.8-31.8-31.8H72.4
		c-16.5,0-27.6,12.8-27.6,31.8V75H0v287.9h606V230.3V161V52.9C606,23.9,582.4,0.3,553.4,0.3z M587.1,52.9v291H364.5v-291
		c0-18.6,15.1-33.7,33.7-33.7h155.3C572,19.2,587.1,34.3,587.1,52.9z M18.9,297.5V245h23.9v52.5H18.9z M72.4,187.7h204.8
		c17.5,0,31.8-14.3,31.8-31.8v-62h36.4h0.2V226H18.9V93.9h25.9v62C44.8,174.9,55.9,187.7,72.4,187.7z M290.1,155.9
		c0,7.1-5.8,12.9-12.9,12.9H72.4c-2.1,0-8.7,0-8.7-12.9V32.1c0-12.9,6.5-12.9,8.7-12.9h204.8c7.1,0,12.9,5.8,12.9,12.9V155.9
		L290.1,155.9z M61.7,297.5V245h38.5v52.5H61.7z M119.2,297.5V245h23.9v52.5H119.2z M345.6,316.4V344H18.9v-27.6H345.6z M345.6,245
		v52.5H162V245H345.6L345.6,245z"/>
	<path class="st0" d="M384.4,221.9h182.8V111.8H384.4V221.9z M548.3,160.5h-70.7L436.9,147l-33.6,11.1v-27.4h145V160.5L548.3,160.5z
		 M403.3,178l33.6-11.1l37.7,12.4l0,0l0.2,0.1l0.7-0.1h72.8V203h-145L403.3,178L403.3,178L403.3,178z"/>
	<path class="st0" d="M82.8,139.9H170V48.8H82.8V139.9z M99.6,65.7h53.6v57.5H99.6V65.7z"/>
	<path class="st0" d="M184.3,139.9h87.2V48.8h-87.2V139.9z M201.1,65.7h53.6v57.5h-53.6V65.7z"/>
</g>
</svg>
