<?xml version="1.0" encoding="iso-8859-1"?>
<!-- Generator: Adobe Illustrator 19.0.0, SVG Export Plug-In . SVG Version: 6.00 Build 0)  -->
<svg version="1.1" id="Capa_1" xmlns="http://www.w3.org/2000/svg" xmlns:xlink="http://www.w3.org/1999/xlink" x="0px" y="0px" fill="#B8B8B8"
	 viewBox="0 0 512 512" style="enable-background:new 0 0 512 512;" xml:space="preserve">
<g>
	<g>
		<path d="M470.946,29.031H41.054C18.416,29.031,0,47.447,0,70.085v265.09c0,22.632,18.416,41.054,41.054,41.054h429.892
			c22.632,0,41.054-18.422,41.054-41.054V70.085C512,47.447,493.579,29.031,470.946,29.031z M476.811,335.175
			c0,3.179-2.686,5.865-5.865,5.865H41.054c-3.179,0-5.865-2.686-5.865-5.865V70.085c0-3.179,2.686-5.865,5.865-5.865h429.892
			c3.179,0,5.865,2.686,5.865,5.865V335.175z"/>
	</g>
</g>
<g>
	<g>
		<rect x="238.112" y="358.635" width="35.189" height="106.74"/>
	</g>
</g>
<g>
	<g>
		<path d="M342.506,447.78H168.907c-9.718,0-17.595,7.877-17.595,17.595s7.877,17.594,17.595,17.594h173.599
			c9.724,0,17.595-7.876,17.595-17.594S352.224,447.78,342.506,447.78z"/>
	</g>
</g>
<g>
</g>
<g>
</g>
<g>
</g>
<g>
</g>
<g>
</g>
<g>
</g>
<g>
</g>
<g>
</g>
<g>
</g>
<g>
</g>
<g>
</g>
<g>
</g>
<g>
</g>
<g>
</g>
<g>
</g>
</svg>
