<?xml version="1.0" encoding="utf-8"?>
<!-- Generator: Adobe Illustrator 23.0.3, SVG Export Plug-In . SVG Version: 6.00 Build 0)  -->
<svg version="1.1" id="레이어_1" xmlns="http://www.w3.org/2000/svg" xmlns:xlink="http://www.w3.org/1999/xlink" x="0px"
	 y="0px" viewBox="0 0 60 60" style="enable-background:new 0 0 60 60;" xml:space="preserve">
<style type="text/css">
	.st0{fill:#B8B8B8;}
</style>
<g>
	<g>
		<path class="st0" d="M28.05,35.59l-0.49-7.39c-0.09-1.44-0.14-2.47-0.14-3.1c0-0.85,0.22-1.52,0.67-2
			c0.45-0.48,1.04-0.72,1.77-0.72c0.89,0,1.48,0.31,1.78,0.92c0.3,0.61,0.44,1.49,0.44,2.64c0,0.68-0.04,1.37-0.11,2.07l-0.67,7.6
			c-0.07,0.91-0.22,1.6-0.46,2.08c-0.23,0.48-0.63,0.72-1.17,0.72c-0.56,0-0.94-0.23-1.15-0.7C28.3,37.26,28.14,36.55,28.05,35.59z
			 M29.76,45.74c-0.63,0-1.17-0.2-1.64-0.61c-0.47-0.41-0.7-0.97-0.7-1.7c0-0.64,0.22-1.18,0.67-1.63c0.45-0.45,1-0.67,1.64-0.67
			c0.65,0,1.2,0.22,1.66,0.67c0.46,0.45,0.69,0.99,0.69,1.63c0,0.72-0.23,1.28-0.69,1.7C30.92,45.54,30.38,45.74,29.76,45.74z"/>
	</g>
	<g>
		<path class="st0" d="M57.74,56.24H2.32c-0.81,0-1.55-0.43-1.95-1.13c-0.41-0.7-0.41-1.56,0-2.26l27.71-48c0.81-1.4,3.1-1.4,3.91,0
			l27.71,48c0.41,0.7,0.41,1.56,0,2.26C59.3,55.81,58.55,56.24,57.74,56.24L57.74,56.24z M6.23,51.73h47.61L30.03,10.5L6.23,51.73
			L6.23,51.73z"/>
	</g>
</g>
</svg>
