<?xml version="1.0" encoding="utf-8"?>
<!-- Generator: Adobe Illustrator 23.0.3, SVG Export Plug-In . SVG Version: 6.00 Build 0)  -->
<svg version="1.1" id="레이어_1" xmlns="http://www.w3.org/2000/svg" xmlns:xlink="http://www.w3.org/1999/xlink" x="0px"
	 y="0px" viewBox="0 0 60 60" style="enable-background:new 0 0 60 60;" xml:space="preserve">
<style type="text/css">
	.st0{fill:#B8B8B8;}
</style>
<g>
	<g>
		<path class="st0" d="M30.08,60C13.53,60,0.06,46.53,0.06,29.98c0-15.74,12.31-28.88,28.02-29.91c0.69-0.05,1.39,0.2,1.9,0.68
			c0.51,0.48,0.8,1.15,0.8,1.85v26.67h26.67c0.7,0,1.37,0.29,1.85,0.8c0.48,0.51,0.73,1.2,0.68,1.9C58.96,47.69,45.82,60,30.08,60
			L30.08,60z M25.71,5.47C13.98,7.54,5.14,17.83,5.14,29.98c0,13.75,11.19,24.94,24.94,24.94c12.15,0,22.44-8.83,24.52-20.56H28.25
			c-1.4,0-2.54-1.14-2.54-2.54V5.47L25.71,5.47z"/>
	</g>
	<g>
		<path class="st0" d="M56.14,26.19H35.6c-0.7,0-1.27-0.57-1.27-1.27V4.39c0-0.7,0.57-1.27,1.27-1.27c12.02,0,21.8,9.78,21.8,21.8
			C57.41,25.62,56.84,26.19,56.14,26.19L56.14,26.19z M36.87,23.65h17.95C54.2,14.04,46.49,6.33,36.87,5.7V23.65L36.87,23.65z"/>
	</g>
</g>
</svg>
