<?xml version="1.0" encoding="utf-8"?>
<!-- Generator: Adobe Illustrator 23.0.3, SVG Export Plug-In . SVG Version: 6.00 Build 0)  -->
<svg version="1.1" id="레이어_1" xmlns="http://www.w3.org/2000/svg" xmlns:xlink="http://www.w3.org/1999/xlink" x="0px"
	 y="0px" viewBox="0 0 60 60" style="enable-background:new 0 0 60 60;" xml:space="preserve">
<style type="text/css">
	.st0{fill:#B8B8B8;}
</style>
<g>
	<g>
		<path class="st0" d="M57.53,58.33H44.67c-1.33,0-2.41-1.08-2.41-2.41V4.08c0-1.33,1.08-2.41,2.41-2.41h12.86
			c1.33,0,2.41,1.08,2.41,2.41v51.84C59.94,57.25,58.86,58.33,57.53,58.33L57.53,58.33z M47.08,53.51h8.03V6.49h-8.03V53.51
			L47.08,53.51z"/>
	</g>
	<g>
		<path class="st0" d="M36.43,58.33H23.57c-1.33,0-2.41-1.08-2.41-2.41V33.82c0-1.33,1.08-2.41,2.41-2.41h12.86
			c1.33,0,2.41,1.08,2.41,2.41v22.11C38.84,57.25,37.76,58.33,36.43,58.33L36.43,58.33z M25.98,53.51h8.03V36.23h-8.03V53.51
			L25.98,53.51z"/>
	</g>
	<g>
		<path class="st0" d="M15.33,58.33H2.47c-1.33,0-2.41-1.08-2.41-2.41V22.97c0-1.33,1.08-2.41,2.41-2.41h12.86
			c1.33,0,2.41,1.08,2.41,2.41v32.96C17.74,57.25,16.66,58.33,15.33,58.33L15.33,58.33z M4.88,53.51h8.03V25.38H4.88V53.51
			L4.88,53.51z"/>
	</g>
</g>
</svg>
