<?xml version="1.0" encoding="utf-8"?>
<!-- Generator: Adobe Illustrator 23.0.3, SVG Export Plug-In . SVG Version: 6.00 Build 0)  -->
<svg version="1.1" id="레이어_1" xmlns="http://www.w3.org/2000/svg" xmlns:xlink="http://www.w3.org/1999/xlink" x="0px"
	 y="0px" viewBox="0 0 60 60" style="enable-background:new 0 0 60 60;" xml:space="preserve">
<style type="text/css">
	.st0{fill:#B8B8B8;}
</style>
<g>
	<g>
		<path class="st0" d="M57.43,59.94H2.57c-1.39,0-2.51-1.12-2.51-2.51V2.57c0-1.39,1.12-2.51,2.51-2.51c1.39,0,2.51,1.12,2.51,2.51
			v52.34h52.34c1.39,0,2.51,1.12,2.51,2.51C59.94,58.81,58.81,59.94,57.43,59.94L57.43,59.94z"/>
	</g>
	<g>
		<g>
			<path class="st0" d="M3.41,58.97c-0.48,0-0.97-0.14-1.4-0.42c-1.15-0.77-1.46-2.33-0.69-3.49l13.19-19.68
				c0.7-1.05,2.08-1.42,3.21-0.85l4.32,2.16l8.16-18.92c0.52-1.19,1.86-1.81,3.1-1.39l4.83,1.61L55.36,1.28
				c1-0.97,2.59-0.94,3.55,0.05c0.97,1,0.94,2.59-0.05,3.55L40.54,22.67c-0.68,0.65-1.65,0.89-2.55,0.58l-4.09-1.36l-8.3,19.24
				c-0.27,0.63-0.8,1.13-1.45,1.36c-0.65,0.23-1.36,0.2-1.98-0.11l-4.72-2.36L5.5,57.86C5.01,58.58,4.22,58.97,3.41,58.97
				L3.41,58.97z"/>
		</g>
		<g>
			<path class="st0" d="M57.79,19.84c-1.19,0-2.15-0.96-2.15-2.15V4.35H42.3c-1.19,0-2.15-0.96-2.15-2.15
				c0-1.19,0.96-2.15,2.15-2.15h15.49c1.19,0,2.15,0.96,2.15,2.15V17.7C59.94,18.88,58.98,19.84,57.79,19.84L57.79,19.84z"/>
		</g>
	</g>
</g>
</svg>
