<?xml version="1.0" encoding="utf-8"?>
<!-- Generator: Adobe Illustrator 23.0.3, SVG Export Plug-In . SVG Version: 6.00 Build 0)  -->
<svg version="1.1" id="Layer_1" xmlns="http://www.w3.org/2000/svg" xmlns:xlink="http://www.w3.org/1999/xlink" x="0px" y="0px"
	 viewBox="0 0 100 125" style="enable-background:new 0 0 100 125;" xml:space="preserve">
<style type="text/css">
	.st0{fill:#B8B8B8;}
</style>
<g>
	<g>
		<g>
			<path class="st0" d="M15.5,57.9c0-0.9,0.7-1.4,2-1.4h8.1c5.3,0,8,3.7,8,7.4c0,2.9-1.8,5.8-5.4,6.8l4.9,9.7
				c0.2,0.4,0.3,0.8,0.3,1.2c0,0.7-0.3,1.2-1.1,1.2c-0.5,0-0.9-0.1-1.2-0.7l-5.7-10.8H18v9.9c0,1.1-0.4,1.6-1.3,1.6
				c-0.9,0-1.3-0.5-1.3-1.6L15.5,57.9L15.5,57.9z M18,59.1v9.5h7.8c3.5,0,5.1-2.3,5.1-4.7c0-2.4-1.7-4.9-5.1-4.9L18,59.1L18,59.1z"
				/>
			<path class="st0" d="M32.4,83.2c-0.8,0-1.3-0.3-1.6-1l-5.6-10.6h-6.6v9.4c0,1.9-1.2,2.1-1.8,2.1c-0.7,0-1.8-0.3-1.8-2.1V57.9
				c0-0.7,0.3-1.9,2.5-1.9h8.1c5.6,0,8.5,3.9,8.5,7.8c0,3.3-2,6-5.2,7.1l4.7,9.2c0.3,0.5,0.4,1,0.4,1.4C34,82.5,33.3,83.2,32.4,83.2
				z M17.6,70.7h8.2l5.8,11.1c0.2,0.3,0.4,0.4,0.8,0.4c0.3,0,0.7-0.1,0.7-0.7c0-0.3-0.1-0.7-0.3-1l-5.2-10.2l0.6-0.2
				c3.7-1,5.1-3.9,5.1-6.3c0-3.4-2.6-6.9-7.6-6.9h-8.1C16,57,16,57.6,16,57.9v23.2c0,1,0.4,1.1,0.8,1.1c0.4,0,0.8-0.1,0.8-1.1
				L17.6,70.7L17.6,70.7z M25.9,69.1h-8.3V58.6h8.3c3.7,0,5.6,2.7,5.6,5.4C31.5,66.4,29.7,69.1,25.9,69.1z M18.5,68.1h7.4
				c3.2,0,4.6-2.1,4.6-4.2c0-2.2-1.6-4.4-4.6-4.4h-7.4V68.1z"/>
		</g>
		<g>
			<path class="st0" d="M53.5,77.3H41.4l-1.4,4c-0.3,0.9-0.8,1.4-1.6,1.4c-0.8,0-1.1-0.6-1.1-1.2c0-0.3,0.1-0.5,0.1-0.7l8-22.6
				c0.4-1.1,1.1-1.6,2-1.6c0.9,0,1.7,0.5,2,1.6l8.3,22.6c0.1,0.3,0.1,0.5,0.1,0.7c0,0.7-0.4,1.2-1.2,1.2c-0.6,0-1.1-0.3-1.3-0.8
				L53.5,77.3z M42.1,74.6h10.5l-5.2-14.5L42.1,74.6z"/>
			<path class="st0" d="M56.6,83.2c-0.8,0-1.4-0.4-1.7-1.2l-1.7-4.2H41.7l-1.3,3.7c-0.5,1.4-1.4,1.7-2,1.7c-1,0-1.6-0.7-1.6-1.7
				c0-0.3,0.1-0.6,0.2-0.8l8-22.6c0.4-1.2,1.3-1.9,2.5-1.9c1.2,0,2,0.7,2.5,1.9l8.3,22.6c0.2,0.3,0.2,0.7,0.2,0.9
				C58.3,82.5,57.6,83.2,56.6,83.2z M41,76.8h12.8l2,4.8c0.2,0.4,0.4,0.5,0.8,0.5c0.5,0,0.7-0.3,0.7-0.7c0-0.2,0-0.4-0.1-0.6
				L49,58.3c-0.3-0.8-0.8-1.3-1.6-1.3c-0.8,0-1.3,0.4-1.6,1.3l-8,22.6c-0.1,0.2-0.1,0.4-0.1,0.5c0,0.5,0.2,0.8,0.7,0.8
				c0.3,0,0.8-0.1,1.1-1L41,76.8z M53.3,75.1H41.4l6-16.4L53.3,75.1z M42.8,74.1h9.1l-4.5-12.6L42.8,74.1z"/>
		</g>
		<g>
			<path class="st0" d="M65,79.1l6-21.3c0.3-0.9,0.9-1.4,1.9-1.4c1,0,1.6,0.5,1.8,1.4l5.8,21.3l3.5-21.3c0.1-0.9,0.6-1.4,1.4-1.4
				c0.7,0,1.4,0.6,1.4,1.4c0,0.1,0,0.2,0,0.3l-4.1,22.8c-0.2,1.1-1.2,1.8-2.2,1.8c-0.9,0-1.8-0.5-2.2-1.6l-5.6-20.5l-5.6,19.9
				c-0.4,1.6-1.4,2.3-2.3,2.3c-1,0-2-0.8-2.2-2.1l-4-22.6c0-0.1,0-0.2,0-0.3c0-0.8,0.6-1.3,1.4-1.3c0.8,0,1.2,0.4,1.4,1.3L65,79.1z"
				/>
			<path class="st0" d="M65,83.2c-1.3,0-2.4-1-2.7-2.5l-4-22.6c0-0.1,0-0.3,0-0.4c0-1,0.8-1.8,1.8-1.8c1,0,1.7,0.6,1.9,1.7l3.3,19.3
				l5.4-19.3c0.3-1.1,1.1-1.7,2.3-1.7c1.2,0,2,0.6,2.3,1.7l5.2,19.2l3.2-19.1c0.2-1.5,1.2-1.9,1.9-1.9c1,0,1.9,0.8,1.9,1.9
				c0,0.1,0,0.3-0.1,0.5l-4.1,22.7c-0.3,1.3-1.4,2.2-2.7,2.2c-1,0-2.2-0.5-2.6-2l-5.1-18.8l-5.1,18.2C67.3,82.5,66,83.2,65,83.2z
				 M60,56.9c-0.4,0-0.9,0.3-0.9,0.8c0,0.1,0,0.1,0,0.2l4.1,22.7c0.2,1,0.9,1.7,1.8,1.7s1.5-0.7,1.9-1.9l6-21.6l6,22.2
				c0.3,1.2,1.4,1.3,1.7,1.3c0.9,0,1.6-0.6,1.8-1.4L86.5,58c0-0.1,0-0.2,0-0.2c0-0.6-0.5-0.9-0.9-0.9s-0.8,0.1-1,1l-3.9,23.4
				l-6.4-23.4c-0.2-0.7-0.6-1-1.4-1c-0.8,0-1.2,0.3-1.4,1l-6.6,23.4l-4-23.5C60.8,57,60.4,56.9,60,56.9z"/>
		</g>
	</g>
	<g>
		<g>
			<g>
				<path class="st0" d="M84,125H16.2c-6.9,0-12.4-5.6-12.4-12.4V12.7c0-6.9,5.6-12.4,12.4-12.4h38.5c3.3,0,6.6,1.4,8.9,3.7l29.4,30
					c2.3,2.3,3.6,5.4,3.6,8.7v70C96.4,119.4,90.8,125,84,125z M16.2,6c-3.7,0-6.6,3-6.6,6.6v99.9c0,3.7,3,6.6,6.6,6.6H84
					c3.7,0,6.6-3,6.6-6.6v-70c0-1.7-0.7-3.4-1.9-4.6L59.4,8c-1.2-1.3-3-2-4.7-2H16.2z"/>
			</g>
		</g>
		<g>
			<g>
				<path class="st0" d="M93.5,39.5H68.2c-6.1,0-11-4.9-11-11V3.1c0-0.8,0.7-1.5,1.5-1.5c0.8,0,1.5,0.7,1.5,1.5v25.3
					c0,4.5,3.6,8.1,8.1,8.1h25.3c0.8,0,1.5,0.7,1.5,1.5C95,38.8,94.3,39.5,93.5,39.5z"/>
			</g>
		</g>
	</g>
</g>
</svg>
